PathFileType	4	(X/Y/Z)	RBDS023\RBDS023runT45.trc
DataRate	CameraRate	NumFrames	NumMarkers	Units	OrigDataRate	OrigDataStartFrame	OrigNumFrames
150.000000	150.000000	4	33	mm	150.000000	3937	4500
Frame#	Time	L.ASIS			L.Heel.Bottom			L.Heel.Lateral			L.Heel.Top			L.Iliac.Crest			L.MT1			L.MT5			L.PSIS			L.Shank.Bottom.Lateral			L.Shank.Bottom.Medial			L.Shank.Top.Lateral			L.Shank.Top.Medial			L.Thigh.Bottom.Lateral			L.Thigh.Bottom.Medial			L.Thigh.Top.Lateral			L.Thigh.Top.Medial			R.ASIS			R.ASY			R.Heel.Bottom			R.Heel.Lateral			R.Heel.Top			R.Iliac.Crest			R.MT1			R.MT5			R.PSIS			R.Shank.Bottom.Lateral			R.Shank.Bottom.Medial			R.Shank.Top.Lateral			R.Shank.Top.Medial			R.Thigh.Bottom.Lateral			R.Thigh.Bottom.Medial			R.Thigh.Top.Lateral			R.Thigh.Top.Medial			
		X1	Y1	Z1	X2	Y2	Z2	X3	Y3	Z3	X4	Y4	Z4	X5	Y5	Z5	X6	Y6	Z6	X7	Y7	Z7	X8	Y8	Z8	X9	Y9	Z9	X10	Y10	Z10	X11	Y11	Z11	X12	Y12	Z12	X13	Y13	Z13	X14	Y14	Z14	X15	Y15	Z15	X16	Y16	Z16	X17	Y17	Z17	X18	Y18	Z18	X19	Y19	Z19	X20	Y20	Z20	X21	Y21	Z21	X22	Y22	Z22	X23	Y23	Z23	X24	Y24	Z24	X25	Y25	Z25	X26	Y26	Z26	X27	Y27	Z27	X28	Y28	Z28	X29	Y29	Z29	X30	Y30	Z30	X31	Y31	Z31	X32	Y32	Z32	X33	Y33	Z33	

3938	26.24666666666667	2360.820448324469	967.0384478842745	963.5573880415633	1810.946749617401	675.8636239130086	1021.41853829417	1816.50654554524	644.3952967156156	976.113845990966	1847.91606582905	645.9133449148304	1022.148358351296	2310.830327698376	1045.32537722779	905.310732137929	1722.140572652488	466.007947781562	1043.232035918293	1731.206023232164	506.7589434759823	934.9320112845544	2174.296587541298	999.2616086941161	986.7518706501525	1902.53613750645	558.7912114967019	955.4032505976688	1912.70184251505	600.8014990568885	984.2450375798772	1981.317394663032	548.551796927104	938.706785589948	1995.242391333881	589.2480300768065	970.1942962025498	2250.12450823903	598.9733809501051	896.1841501927316	2190.923233589317	603.3034290731508	935.3673099471129	2248.066055165359	708.7638204549922	885.1752341433468	2191.680070642398	713.2142800212582	923.3805591467577	2331.140253332975	978.7612626732024	1170.927769684477	-20219976132.99283	-33222884641.13089	26923746590.59658	2324.024410404334	26.10875371763124	1069.130700051238	2349.655397599508	43.16229548899358	1114.547332525031	2336.20175053874	71.69793032058723	1068.660533494917	2247.780557061551	1052.409167094228	1210.811122310353	2552.943437381854	37.12992903365945	1049.56206960077	2512.217077539571	29.09689000539742	1162.534264852727	2156.822438538925	1009.164787376685	1094.635935930017	2413.985125736294	150.9756919602006	1143.890179493168	2366.408117583223	159.9783474450139	1116.369301504916	2410.155027564698	227.0464983739075	1172.569187820559	2364.801485427402	235.5511380533323	1143.652444450921	2380.772856560905	605.8522290618281	1214.110931857284	2335.110599781109	578.1411095169382	1164.674195857456	2314.376472369248	693.3547550022666	1222.344545399515	2271.289679732874	666.6591390239006	1175.516990214536	
3939	26.25333333333333	2357.319050352437	960.416702148395	963.5654584119119	1829.778925127282	673.2582327670916	1018.088560289391	1836.660665070258	641.7029749747097	973.124005087285	1866.927877826642	643.7044132275792	1019.700264116012	2307.61776825484	1037.727261365698	904.2824033502121	1742.218332052043	462.8927250365555	1039.317451160239	1753.88605986731	502.9372584860824	930.9673542187318	2171.64022362661	994.6046530556735	986.0115975054835	1922.708933402314	555.0992574173848	953.4854388960599	1933.292862302428	597.4085862521349	981.9005687845039	2001.425727619629	543.8983779263117	936.9339584829436	2015.787037826018	584.8460416664774	968.0429433204242	2262.467213373804	593.8190971309313	895.3905280232	2202.219727970835	595.3417648741896	932.965314052811	2255.927440870973	703.469964303848	884.7997487769965	2198.557664417062	705.2555564193477	921.5906199138825	2328.057420995214	975.202031135206	1171.421653928001	-20248204422.99969	-33269263880.30087	26961334039.96506	2294.860222323734	27.95585781186194	1068.836792955535	2320.873935407479	45.26686165668948	1113.989075572864	2308.335540730757	73.52689700470056	1067.624417286396	2244.798789359447	1046.438878613903	1210.672100240885	2524.485175253409	34.69717293367916	1048.558394986497	2483.273554043998	28.69355339512305	1162.208140939066	2153.874863683449	1005.950844038522	1093.331603086507	2392.306908855923	150.4477325868368	1142.696665367545	2344.867011429114	162.0481169150177	1115.849117386571	2392.652564700632	226.5305494239102	1171.85127634949	2347.358309547654	237.4647275865101	1143.650967744322	2376.186879478883	602.7246278620951	1215.076873276759	2331.031664002347	575.5665792642542	1164.864075924918	2310.069584086129	690.4491610451601	1223.306522762918	2267.290901150794	664.2061288119054	1175.904114483831	
3940	26.26	2353.598980541911	954.2265259435419	963.5665472590587	1847.46951588348	668.7281542555127	1014.393849439549	1855.984101630675	637.074249343277	970.0711150782734	1885.032753746761	639.9145589280175	1017.030459777826	2303.675139741023	1030.787067120129	903.4634185784821	1762.928701659069	457.3044324692391	1035.895562898589	1776.852515978479	496.4085305890749	927.3532288750903	2168.888382461244	990.8651135672145	985.5395268293478	1942.795773978266	550.2543692901957	951.6328206265639	1953.433564866393	592.9209207217797	979.5803470788479	2021.525813640231	538.7211830485744	935.2547967642518	2035.996122858014	580.0154911192939	965.9894763820063	2275.345172521829	590.0246014187818	894.7249379821267	2214.143638899291	588.5078839691516	930.597493300053	2264.075767187019	699.3459328084715	884.7179342818496	2205.810629963515	698.241499996202	919.9952350250718	2324.936261570423	972.0916307862482	1172.242431038338	-20276458973.01287	-33315686263.10278	26998956456.21782	2265.589566371466	29.47330912698045	1068.68887856289	2291.820510238809	47.10440595362221	1113.653137867627	2279.896549628666	75.03945927463641	1066.915673706809	2241.4928117754	1041.013800745719	1210.537042539014	2495.396561124177	33.7411538894503	1047.835463591663	2453.912372332285	29.25023127113398	1161.982375315258	2150.993688169589	1003.463055456022	1092.215136868816	2369.447029789471	150.1360779729451	1141.680895281675	2322.235397707496	164.2008960495759	1115.525351526083	2373.805426609307	226.0621221663033	1171.189838337469	2328.66090517807	239.2976731348157	1143.710849432157	2370.361032199552	599.4842758887953	1215.757287093007	2325.52688900666	573.1333701930037	1164.818971785687	2304.982639470938	687.7098240946027	1224.111849607319	2262.339650540891	662.1823850167431	1176.161936547275	
3941	26.26666666666667	2349.786891286205	948.7004295676925	963.5268083249069	1863.893421304278	662.2725547805021	1010.442614792536	1874.319019662234	630.5574078773279	967.0234778428955	1902.088422136509	634.5515915429055	1014.202486118272	2299.042943273259	1024.730862522662	902.8735447579074	1784.210865930239	449.301653714817	1032.998302457942	1799.957248748946	487.3334062243907	924.1423349452002	2166.101053589938	988.0713836890258	985.3999007129047	1962.651619867692	544.373431291967	949.8775520950235	1972.947344533158	587.447275327134	977.3239597648598	2041.479272814278	533.1813482729041	933.7094311469801	2055.689803709643	574.9168641929308	964.0717058070621	2288.613016225534	587.7596337861434	894.2391461687113	2226.641952815705	582.9930327467225	928.4267590899352	2272.378715742176	696.5221127480542	884.9620039530622	2213.387047836818	692.3213052550841	918.7090971955026	2321.898797154029	969.465161881024	1173.349719895557	-20304739795.24113	-33362151809.59416	27036613855.6118	2236.159866562617	30.56891269002981	1068.665399292328	2262.477987281816	48.53247618658234	1113.520450216807	2250.894902746157	76.15075167401409	1066.522512266648	2237.972902882567	1036.319459202609	1210.425917152873	2465.800107061412	33.81319632324227	1047.383070678889	2424.207101010878	30.35469008566195	1161.847910233188	2148.284186371593	1001.724590352749	1091.381312847725	2345.400834457655	149.8478056972914	1140.852277606861	2298.492087247926	166.2076697693199	1115.399563114855	2353.562340639197	225.4683426338696	1170.584943841417	2308.637454662964	240.8449856195645	1143.827297138962	2363.207135154519	596.1156546809485	1216.13374835564	2318.433351459637	570.8096682440673	1164.606337505785	2299.087209802772	685.148695376963	1224.733604750181	2256.360195254953	660.593112203748	1176.325404184008	
